<svg xmlns="http://www.w3.org/2000/svg" width="375.501" height="74.265" viewBox="0 0 375.501 74.265">
  <g id="Group_61" data-name="Group 61" transform="translate(0.5 -309.867)">
    <g id="Group_56" data-name="Group 56" transform="translate(-0.5 309.867)">
      <path id="Subtraction_20" data-name="Subtraction 20" d="M0,57.049v-.983c5.247-2.418,10.618-4.687,15.964-6.745,4.174-1.61,8.627-3.309,13.151-4.827,4.633-1.556,9.173-2.86,13.493-3.877a181.357,181.357,0,0,1,27.708-4.409c6.856-.6,14.369-.888,22.971-.888,1.619,0,3.323.01,5.064.03,8.163.093,16.793.428,27.982,1.087,14.3.863,28.8,2.009,42.821,3.117h.006l.02,0,.593.047c4.029.318,8.2.647,12.349.968,21.7,1.679,39.422,2.94,55.758,3.968,6.529.434,13.159.822,19.57,1.2l.512.03,1.291.076h.012c2.119.124,4.31.252,6.491.383,10.111.6,19.216.915,27.837.95.986.017,2.009.025,3.041.025a184.614,184.614,0,0,0,24.592-1.652,92.671,92.671,0,0,0,13.425-2.944,67.989,67.989,0,0,0,12.64-5.213,55.122,55.122,0,0,0,11.105-8A55.131,55.131,0,0,0,367.185,18.9,65.3,65.3,0,0,0,375.5,0V3.112a69.186,69.186,0,0,1-6.963,16.653,56.847,56.847,0,0,1-8.776,11.143A56.827,56.827,0,0,1,348.5,39.529c-7.362,4.33-16.134,7.289-26.819,9.046a186.1,186.1,0,0,1-28.126,2.152c-.658,0-1.235,0-1.763,0-17.26,0-34.683-1.228-51.533-2.416l-1.231-.087-.059,0-1.385-.1c-18.355-1.291-36.932-2.949-54.9-4.553l-.853-.076-7.356-.659h-.007l-.032,0c-15.828-1.419-32.2-2.887-48.3-4.021-10.905-.749-19.76-1.182-27.868-1.361-3.017-.067-5.8-.1-8.509-.1-7.042,0-13.367.224-19.336.685l-3.473.281c-.679.058-1.356.13-2.01.2l-.029,0H64.9c-.42.045-.917.1-1.415.147-1.778.165-3.609.414-5.379.654l-.042.006-.307.041-.1.013-1.077.145c-5.527.828-9.747,1.614-13.683,2.547-4.642,1.1-9.158,2.332-13.424,3.664-3.573,1.114-7.1,2.42-10.51,3.682l-.048.017c-.994.368-1.8.664-2.524.931C10.907,52.4,5.39,54.645,0,57.048Z" fill="#c7990b"/>
      <path id="Subtraction_18" data-name="Subtraction 18" d="M0,39.445v-.831c.518-.271,1.038-.54,1.589-.824a271.716,271.716,0,0,1,25.565-11.4c4.842-1.868,8.931-3.4,13.151-4.828,4.53-1.528,9.07-2.83,13.493-3.869a180.294,180.294,0,0,1,27.708-4.424c6.94-.6,14.277-.886,23.092-.886,1.57,0,3.185.009,4.935.027,8.083.085,16.716.423,27.99,1.094,14.438.866,29.089,2.024,43.257,3.144l.206.016c4.581.363,8.43.667,12.326.968,21.918,1.7,39.633,2.959,55.75,3.968,6.835.458,13.765.865,20.468,1.257l.126.007.659.039c2.184.128,4.425.26,6.63.391,10.146.607,19.252.915,27.838.942.986.017,2.029.026,3.1.026a183.367,183.367,0,0,0,24.525-1.652,92.591,92.591,0,0,0,13.444-2.942,68.152,68.152,0,0,0,12.629-5.206,55.013,55.013,0,0,0,11.1-8A55.161,55.161,0,0,0,375.5,0V2.947a56.92,56.92,0,0,1-4.521,5.023,56.8,56.8,0,0,1-11.267,8.62c-7.342,4.318-16.112,7.277-26.811,9.046a188.42,188.42,0,0,1-28.127,2.151c-.655,0-1.229,0-1.756,0-17.121,0-34.39-1.212-51.091-2.385l-.108-.008-1.469-.1-1.547-.108c-17.612-1.231-35.5-2.828-52.8-4.373l-.074-.007-2.878-.257q-3.508-.312-7.015-.628l-.186-.017h-.021c-15.883-1.424-32.307-2.9-48.475-4.036-10.748-.738-19.605-1.171-27.876-1.361-3.005-.068-5.786-.1-8.5-.1-7.011,0-13.338.227-19.343.695l-3.466.274c-.618.053-1.238.12-1.837.186l-.138.015h-.009c-.543.06-1,.11-1.474.156-1.876.176-3.791.434-5.644.683l-.265.036-.068.009-.925.124c-5,.758-9.472,1.591-13.684,2.547S45.532,21.281,40.7,22.793c-3.609,1.129-7.234,2.458-10.74,3.743l-.011,0-.021.008-.489.179-.014.005q-.942.345-1.884.689A268.76,268.76,0,0,0,1.954,38.467C1.3,38.791.642,39.12,0,39.444Z" transform="translate(0 34.82)" fill="#262262"/>
    </g>
  </g>
</svg>
