<svg xmlns="http://www.w3.org/2000/svg" width="1920.5" height="680" viewBox="0 0 1920.5 680">
  <g id="Group_64" data-name="Group 64" transform="translate(0.5 -1187)">
    <rect id="Rectangle_131" data-name="Rectangle 131" width="1920" height="680" transform="translate(0 1187)" fill="#fff"/>
    <path id="Subtraction_35" data-name="Subtraction 35" d="M145.044,721c-22.82,0-46.286-.429-68.979-.843h-.031c-23-.42-46.781-.854-70.226-.854-21.786,0-44.092.449-65.664.883-8.639.174-17.573.354-26.144.5V704.768a87.621,87.621,0,0,0,25.53-10.409,91.4,91.4,0,0,0,21.08-18,153.047,153.047,0,0,0,18.18-26.27A335.2,335.2,0,0,0-4.38,614.875L45.711,494.317C53.753,475,62.253,456.653,70.976,439.8c8.52-16.464,17.515-32.019,26.737-46.232a426.032,426.032,0,0,1,28.17-38.651,347.852,347.852,0,0,1,29.562-31.776,304.31,304.31,0,0,1,30.916-25.608,289.773,289.773,0,0,1,32.229-20.146,302.429,302.429,0,0,1,33.5-15.39,345.41,345.41,0,0,1,34.736-11.34,26.3,26.3,0,0,1,7.254-1.216,9.157,9.157,0,0,1,4.022.764,3.458,3.458,0,0,1,1.9,2.06,5.184,5.184,0,0,1-1,4.273,19.948,19.948,0,0,1-5.385,5.156,307.991,307.991,0,0,0-45.275,41.017,368.881,368.881,0,0,0-39.306,52.8c-12.308,19.734-24.592,42.628-37.555,69.989-12.043,25.421-25.135,55.708-40.022,92.594l-41.6,101.88a268.92,268.92,0,0,0-9.975,28.76c-2.428,8.939-3.608,16.472-3.608,23.03,0,6.346,1.172,11.566,3.582,15.958A25.3,25.3,0,0,0,84.6,693.86a32.211,32.211,0,0,0,6.954,4.96c5.462,2.945,12.413,5.067,21.252,6.487a205.791,205.791,0,0,0,32.236,2.109c4.758,0,10.131.139,13.9,1.167a9.546,9.546,0,0,1,4.126,2.056,5,5,0,0,1,0,7.137,9.545,9.545,0,0,1-4.126,2.056C155.175,720.861,149.8,721,145.044,721ZM-80.79,543.559c-1.732-.162-3.485-.358-5.21-.584V525.784c2.979,2.068,6.16,4.05,9.455,5.89a22.992,22.992,0,0,1,5.412,2.759,4.957,4.957,0,0,1,2.229,4.033c0,1.985-1.111,3.339-3.4,4.139A27.022,27.022,0,0,1-80.79,543.559ZM-86,300.523V237.5a421.731,421.731,0,0,1,64.659-29.023,564.746,564.746,0,0,1,69.356-19.616,651.433,651.433,0,0,1,69.024-11.109,604.1,604.1,0,0,1,63.663-3.5c13.14,0,26.758.571,40.477,1.7,12.311,1.01,24.81,2.455,38.212,4.417,24.776,3.627,48.09,8.371,70.637,12.958h.005c19.187,3.9,37.309,7.591,55.085,10.346,9.526,1.476,18.13,2.557,26.3,3.3,9.114.833,17.514,1.238,25.68,1.238,19.905,0,36.78-1.605,51.59-4.908a126.194,126.194,0,0,0,38.935-15.256,122.73,122.73,0,0,0,30.179-26.4c8.57-10.193,16.853-22.733,25.324-38.338a29.218,29.218,0,0,1,5.061-6.957c1.522-1.445,2.978-2.209,4.209-2.209a2.672,2.672,0,0,1,2.237,1.188,8.685,8.685,0,0,1,1.167,5.166,31.982,31.982,0,0,1-1.638,8.755C587.812,142.72,582,154.437,576.4,165.066c-5.848,11.1-11.316,20.74-16.716,29.461-11.042,17.831-21.669,31.5-32.487,41.8-10.866,10.341-22.274,17.61-34.875,22.22a101.677,101.677,0,0,1-19.7,4.986,143.287,143.287,0,0,1-21.94,1.554,150.836,150.836,0,0,1-24.141-2.132c-7.981-1.29-16.634-3.162-26.454-5.722-18.362-4.787-38.12-11.292-59.038-18.178l-.007,0c-27.191-8.951-55.309-18.208-85.19-25.418-16.2-3.91-31.16-6.793-45.729-8.816-7.946-1.1-15.84-1.948-23.462-2.511-8.039-.594-16.044-.9-23.791-.9a419.581,419.581,0,0,0-73.818,6.462,366.1,366.1,0,0,0-68.3,19.03,295.5,295.5,0,0,0-59.461,31.062A231.346,231.346,0,0,0-86,300.521Z" transform="translate(86 1086)" fill="#c7990b" stroke="rgba(0,0,0,0)" stroke-miterlimit="10" stroke-width="1" opacity="0.153"/>
    <path id="Subtraction_34" data-name="Subtraction 34" d="M174.044,721c-22.814,0-46.278-.429-68.968-.843h-.011c-23.008-.42-46.8-.855-70.256-.855-21.782,0-44.085.449-65.654.883h-.007C-51.7,720.6-71.395,721-89.995,721c-5.846,0-10.358-.2-13.372-1.167a6.824,6.824,0,0,1-3.343-2.056,5.436,5.436,0,0,1-1.114-3.569,3.452,3.452,0,0,1,1.472-2.719,11.45,11.45,0,0,1,3.94-1.844,46.644,46.644,0,0,1,12.417-1.38c15.067,0,27.837-1.688,39.041-5.16a84.379,84.379,0,0,0,30.047-16.383c8.677-7.326,16.579-16.8,24.157-28.959,7.053-11.318,14.044-25.347,21.371-42.888l50.09-120.558C82.752,475,91.253,456.653,99.975,439.8c8.52-16.465,17.516-32.019,26.737-46.232a426.035,426.035,0,0,1,28.17-38.651,347.817,347.817,0,0,1,29.562-31.776,304.323,304.323,0,0,1,30.916-25.608,289.748,289.748,0,0,1,32.229-20.146,302.406,302.406,0,0,1,33.5-15.39,345.429,345.429,0,0,1,34.736-11.34,26.306,26.306,0,0,1,7.255-1.216,9.158,9.158,0,0,1,4.022.764,3.459,3.459,0,0,1,1.9,2.06,5.184,5.184,0,0,1-1,4.273,19.947,19.947,0,0,1-5.385,5.156,308,308,0,0,0-45.276,41.017,368.892,368.892,0,0,0-39.306,52.8c-12.308,19.734-24.592,42.628-37.555,69.989-12.044,25.422-25.135,55.71-40.022,92.594l-41.6,101.88a268.881,268.881,0,0,0-9.976,28.76c-2.428,8.939-3.608,16.472-3.608,23.029,0,6.346,1.172,11.566,3.582,15.958a25.307,25.307,0,0,0,4.746,6.144,32.214,32.214,0,0,0,6.954,4.96c5.462,2.945,12.413,5.067,21.252,6.487a205.785,205.785,0,0,0,32.235,2.109c4.758,0,10.131.139,13.9,1.167a9.545,9.545,0,0,1,4.126,2.056,5,5,0,0,1,0,7.137,9.544,9.544,0,0,1-4.126,2.056C184.175,720.861,178.8,721,174.044,721ZM-51.79,543.559a142.57,142.57,0,0,1-30.729-6.35A141.486,141.486,0,0,1-111,524.345V275.966A271.2,271.2,0,0,1-78.055,250.35a346.156,346.156,0,0,1,37.413-21.5c24.9-12.38,52.955-22.977,83.375-31.5a628.137,628.137,0,0,1,86.684-17.624c13.865-1.836,27.844-3.233,41.549-4.153,13.206-.886,26.239-1.336,38.735-1.336,13.138,0,26.757.571,40.477,1.7,12.312,1.01,24.811,2.455,38.212,4.417,24.778,3.627,48.091,8.371,70.637,12.958,19.188,3.9,37.312,7.592,55.09,10.347,9.527,1.476,18.131,2.557,26.3,3.3,9.113.833,17.513,1.238,25.68,1.238,19.9,0,36.78-1.606,51.59-4.908a126.2,126.2,0,0,0,38.935-15.256,122.735,122.735,0,0,0,30.179-26.4c8.569-10.193,16.853-22.733,25.324-38.338a29.222,29.222,0,0,1,5.062-6.957c1.522-1.445,2.978-2.209,4.209-2.209a2.673,2.673,0,0,1,2.237,1.189,8.684,8.684,0,0,1,1.167,5.166,31.98,31.98,0,0,1-1.637,8.755c-6.352,13.47-12.162,25.186-17.761,35.819-5.847,11.1-11.315,20.739-16.716,29.461-11.042,17.831-21.669,31.5-32.487,41.8-10.867,10.342-22.274,17.61-34.875,22.22a101.668,101.668,0,0,1-19.7,4.986,143.282,143.282,0,0,1-21.94,1.554,150.821,150.821,0,0,1-24.141-2.132c-7.98-1.29-16.633-3.162-26.454-5.722-18.362-4.788-38.12-11.292-59.038-18.178-27.194-8.952-55.313-18.209-85.2-25.42-16.2-3.91-31.161-6.793-45.729-8.815-7.945-1.1-15.838-1.948-23.462-2.511-8.039-.594-16.043-.9-23.79-.9a424.851,424.851,0,0,0-56.742,3.781,389.049,389.049,0,0,0-53.986,11.183A338.731,338.731,0,0,0,31.4,234.722,283.845,283.845,0,0,0-12.63,259.993,235.091,235.091,0,0,0-49.453,291.95a201.121,201.121,0,0,0-28.138,38.4c-16.117,28.739-24.289,60.767-24.289,95.194a173.342,173.342,0,0,0,3.356,35.207,126.494,126.494,0,0,0,4.21,15.385A107.954,107.954,0,0,0-88.4,490.072a97.772,97.772,0,0,0,7.623,12.5,95.121,95.121,0,0,0,9.344,11.087,99.79,99.79,0,0,0,11.075,9.694,112.132,112.132,0,0,0,12.816,8.321,22.987,22.987,0,0,1,5.412,2.759,4.957,4.957,0,0,1,2.228,4.033c0,1.985-1.111,3.339-3.4,4.139A27.02,27.02,0,0,1-51.79,543.559Z" transform="translate(111 1121)" fill="#262262" stroke="rgba(0,0,0,0)" stroke-miterlimit="10" stroke-width="1" opacity="0.153"/>
  </g>
</svg>
