<svg id="Layer_2" data-name="Layer 2" xmlns="http://www.w3.org/2000/svg" width="147.358" height="66.345" viewBox="0 0 147.358 66.345">
  <g id="Layer_1" data-name="Layer 1" transform="translate(0 0)">
    <path id="Path_31" data-name="Path 31" d="M47.457,2.112A2.611,2.611,0,0,0,50.22.221c.156-.385.339-.265.233.135-.912,2.509-1.559,3.222-2.734,3.222-1.249,0-3.026-1.5-5.171-1.5a5.021,5.021,0,0,0-5.341,5.073,2.633,2.633,0,0,0,.926,2.334c.109.058.17.1.17.175s-.122.135-.247.135A2.713,2.713,0,0,1,35.74,6.859c0-4.148,4.477-5.479,7.211-5.479C44.77,1.385,46.152,2.112,47.457,2.112ZM44.85,3.385c-1.191,1.2-1.856,2.684-2.872,5.866l-.695,2.22a4.145,4.145,0,0,0-.247,1.178c0,.56.324.8,1.233.8.217,0,.4.019.4.175s-.186.172-.4.172c-.878,0-1.774-.04-2.671-.04-.817,0-1.636.04-2.437.04-.217,0-.355-.019-.355-.172s.17-.156.355-.156c1.1,0,1.62-.56,2.122-2.082L40.2,8.6c1.172-3.53,2.716-4.959,4.538-5.5.255-.077.316.1.117.289Z" transform="translate(-26.262 0.014)"/>
    <path id="Path_32" data-name="Path 32" d="M80.915,19.75a1.7,1.7,0,0,0-.077-.668.947.947,0,0,0-.849-.424c-.141,0-.249-.037-.249-.135s.093-.133.233-.133c.461,0,.957.019,1.822.019s1.358-.019,1.822-.019c.138,0,.231.037.231.133s-.109.135-.247.135c-.247,0-.711.1-.849.424a1.591,1.591,0,0,0-.093.658v1.737c0,.114.029.191.122.191h4.662c.077,0,.125-.037.125-.114v-1.8a1.629,1.629,0,0,0-.093-.658.947.947,0,0,0-.849-.424c-.156,0-.247-.019-.247-.135s.09-.133.247-.133c.448,0,.957.019,1.806.019s1.358-.019,1.806-.019c.154,0,.247.037.247.133s-.093.135-.247.135c-.247,0-.711.1-.849.424a1.647,1.647,0,0,0-.077.658v5.073a1.647,1.647,0,0,0,.077.658.961.961,0,0,0,.849.424c.154,0,.247.037.247.135s-.093.135-.247.135c-.448,0-.941-.021-1.79-.021s-1.361.021-1.822.021c-.156,0-.247-.021-.247-.135s.09-.135.247-.135a.961.961,0,0,0,.849-.424,1.629,1.629,0,0,0,.093-.658V22.662c0-.114-.048-.191-.125-.191H82.83c-.125,0-.17.037-.17.191v2.161a1.591,1.591,0,0,0,.093.658c.138.326.6.424.849.424.138,0,.247.037.247.135s-.093.135-.231.135c-.464,0-.973-.021-1.838-.021s-1.345.021-1.806.021c-.141,0-.233-.021-.233-.135s.093-.135.249-.135a.947.947,0,0,0,.849-.424,1.7,1.7,0,0,0,.077-.658Z" transform="translate(-58.593 -13.509)"/>
    <path id="Path_33" data-name="Path 33" d="M129.19,25.831c-.464,0-1.018-.021-1.729-.021-.849,0-1.342.021-1.79.021-.154,0-.231-.058-.231-.135s.077-.135.215-.135a1.014,1.014,0,0,0,.865-.424,1.628,1.628,0,0,0,.093-.658V19.405a1.509,1.509,0,0,0-.093-.636.984.984,0,0,0-.865-.446c-.138,0-.215-.056-.215-.135s.077-.133.231-.133c.432,0,.941.019,1.806.019.416,0,1.034-.019,1.512-.019h3.1a1.933,1.933,0,0,0,.8-.135c.125,0,.141.056.109.347l-.17,1.716c-.032.252-.186.265-.231,0-.141-1.178-.573-1.2-1.575-1.2h-1.915c-.57,0-.756.194-.756.849V21.2c0,.156.045.212.17.212h1.856a.931.931,0,0,0,.955-.944c0-.175.064-.265.125-.265s.093.077.093.265c0,.329-.016.907-.016,1.292s.016.947.016,1.294c0,.212-.032.265-.093.265s-.109-.058-.125-.265a.9.9,0,0,0-.955-.907h-1.856c-.138,0-.17.058-.17.194v1.35c0,1.138.247,1.39,1.3,1.39h.957a2.257,2.257,0,0,0,2.469-1.591c.093-.212.278-.154.233.077l-.318,1.273c-.231.947-.308,1.005-1.018,1.005Z" transform="translate(-92.173 -13.164)"/>
    <path id="Path_34" data-name="Path 34" d="M183.032,20.185c.016.249-.186.265-.247.019-.294-1.2-1.467-1.525-2.671-1.525-1.326,0-1.947.406-1.947,1.024,0,1.737,5.482.424,5.482,3.742,0,2.026-1.963,2.527-3.753,2.527a6.268,6.268,0,0,1-2.748-.53c-.247-.04-.17.117-.278.117s-.154-.058-.17-.446l-.17-1.947c-.016-.117.032-.194.109-.194s.093.1.122.194a2.992,2.992,0,0,0,3.135,2.045c1.281,0,2.3-.347,2.3-1.178,0-1.986-5.479-.265-5.479-3.713,0-2.026,1.96-2.387,3.411-2.387a6.442,6.442,0,0,1,2.36.379c.231.058.186-.135.294-.135.061,0,.122.04.154.53Z" transform="translate(-129.712 -13.172)"/>
    <path id="Path_35" data-name="Path 35" d="M209.962,19.75a1.7,1.7,0,0,0-.077-.658c-.138-.326-.6-.424-.849-.424-.141,0-.247-.037-.247-.135s.093-.133.231-.133c.464,0,.957.019,1.822.019s1.358-.019,1.822-.019c.138,0,.231.037.231.133s-.109.135-.247.135c-.247,0-.711.1-.849.424a1.63,1.63,0,0,0-.093.658v1.737c0,.114.032.191.122.191h4.665c.077,0,.122-.037.122-.114V19.75a1.628,1.628,0,0,0-.08-.668c-.138-.326-.6-.424-.849-.424-.154,0-.247-.019-.247-.135s.093-.133.247-.133c.448,0,.957.019,1.806.019s1.358-.019,1.806-.019c.154,0,.247.037.247.133s-.093.135-.247.135c-.247,0-.711.1-.849.424a1.7,1.7,0,0,0-.077.658v5.084a1.7,1.7,0,0,0,.077.658.961.961,0,0,0,.849.424c.154,0,.247.037.247.135s-.093.135-.247.135c-.448,0-.941-.021-1.79-.021s-1.358.021-1.822.021c-.154,0-.247-.021-.247-.135s.093-.135.247-.135a.961.961,0,0,0,.849-.424,1.628,1.628,0,0,0,.093-.658V22.662c0-.114-.045-.191-.122-.191h-4.63c-.125,0-.17.037-.17.191v2.161a1.63,1.63,0,0,0,.093.658c.138.326.6.424.849.424.138,0,.247.037.247.135s-.093.135-.231.135c-.464,0-.973-.021-1.838-.021s-1.342.021-1.806.021c-.138,0-.231-.021-.231-.135s.093-.135.247-.135c.247,0,.711-.1.849-.424a1.7,1.7,0,0,0,.077-.658Z" transform="translate(-153.418 -13.509)"/>
    <path id="Path_36" data-name="Path 36" d="M259.192,17.92c3.01,0,5.079,1.408,5.079,3.936,0,2.14-1.451,4.108-4.986,4.108-2.872,0-5.095-1.292-5.095-3.936C254.19,19.867,255.657,17.92,259.192,17.92Zm-2.93,3.9c0,1.989,1.061,3.533,3.01,3.533,1.512,0,2.949-.907,2.949-3.262,0-2.008-1.034-3.551-3.01-3.551C257.693,18.535,256.261,19.442,256.261,21.816Z" transform="translate(-186.778 -13.164)"/>
    <path id="Path_37" data-name="Path 37" d="M296.857,18.719c-.17-.021-.294-.04-.294-.135s.093-.154.265-.154c.711,0,1.281.037,2.037.037.695,0,1.36-.037,2.411-.037,1.2,0,3.6.077,3.6,2.217a2.1,2.1,0,0,1-1.857,2.143,2.27,2.27,0,0,1,.647.772c.973,1.62,1.713,2.387,2.671,2.387.324,0,.265.231.032.265a6.508,6.508,0,0,1-1.191.077c-1.544,0-2.021-.04-3.657-2.74-.294-.464-.53-.581-.743-.6h-.944c-.138,0-.154.04-.154.212v1.273c0,1.371.57,1.467,1.111,1.506.17.019.294.019.294.135s-.093.135-.265.135c-.695,0-1.326-.021-1.976-.021s-1.374.021-2.055.021c-.154,0-.265-.021-.265-.135s.138-.135.308-.156c.53-.037,1.111-.077,1.111-1.485V20.194C297.936,18.815,297.4,18.738,296.857,18.719Zm4.493,3.607a1.519,1.519,0,0,0,1.62-1.679c0-1.326-.711-1.591-1.62-1.591h-.724c-.9,0-.941.021-.941,1.14v1.968c0,.114.032.172.154.172Z" transform="translate(-217.882 -13.539)"/>
    <path id="Path_38" data-name="Path 38" d="M340.48,25.831c-.461,0-1.018-.021-1.729-.021-.849,0-1.342.021-1.79.021-.154,0-.231-.058-.231-.135s.077-.135.215-.135a1.014,1.014,0,0,0,.865-.424,1.629,1.629,0,0,0,.093-.658V19.405a1.509,1.509,0,0,0-.093-.636.984.984,0,0,0-.865-.446c-.138,0-.215-.056-.215-.135s.077-.133.231-.133c.432,0,.941.019,1.806.019.416,0,1.034-.019,1.514-.019h3.1a1.962,1.962,0,0,0,.8-.135c.122,0,.138.056.106.347l-.17,1.716c-.029.252-.186.265-.231,0-.138-1.178-.57-1.2-1.575-1.2H340.4c-.57,0-.756.194-.756.849V21.2c0,.156.045.212.17.212h1.856a.933.933,0,0,0,.957-.944c0-.175.061-.265.122-.265s.093.077.093.265c0,.329-.016.907-.016,1.292s.016.947.016,1.294c0,.212-.032.265-.093.265s-.109-.058-.122-.265a.9.9,0,0,0-.957-.907h-1.856c-.138,0-.17.058-.17.194v1.35c0,1.138.247,1.39,1.3,1.39h.957a2.257,2.257,0,0,0,2.469-1.591c.093-.212.265-.154.233.077l-.318,1.273c-.231.947-.308,1.005-1.018,1.005Z" transform="translate(-247.428 -13.164)"/>
    <path id="Path_39" data-name="Path 39" d="M374.293,23.946c0,1.326.016,1.565,1.591,1.565h.941c.987,0,1.745-.53,2.191-2.085.064-.265.265-.212.218.037l-.371,1.814c-.122.6-.215.928-.8.928h-2.652c-.432,0-1.435-.021-1.9-.021-.634,0-1.467.021-2.1.021-.138,0-.231-.08-.231-.117a.264.264,0,0,1,.247-.175c.759,0,1.1-.5,1.1-1.445V20.186a2.038,2.038,0,0,0-.125-.907,1.114,1.114,0,0,0-.989-.56c-.154,0-.265-.04-.265-.156s.093-.133.265-.133c.647,0,1.39.037,2.037.037s1.281-.037,1.976-.037c.154,0,.247.037.247.133s-.122.156-.278.156a1.112,1.112,0,0,0-.987.56,2.387,2.387,0,0,0-.109.907Z" transform="translate(-272.719 -13.539)"/>
    <path id="Path_40" data-name="Path 40" d="M406.932,19.78a1.591,1.591,0,0,0-.093-.658.919.919,0,0,0-.833-.424c-.154,0-.247-.056-.247-.135s.093-.133.215-.133c.464,0,.957.019,1.822.019s1.36-.019,1.822-.019c.141,0,.231.056.231.133s-.106.135-.247.135a.947.947,0,0,0-.849.424,1.628,1.628,0,0,0-.093.658v5.073a1.975,1.975,0,0,0,.093.658.947.947,0,0,0,.849.424c.141,0,.247.056.247.135s-.09.135-.231.135c-.461,0-.957-.021-1.822-.021s-1.374.021-1.822.021c-.122,0-.215-.058-.215-.135s.093-.135.247-.135a.919.919,0,0,0,.833-.424,1.908,1.908,0,0,0,.093-.658Z" transform="translate(-298.151 -13.539)"/>
    <path id="Path_41" data-name="Path 41" d="M434.742,25.49c0,.695-.029.849-.106.849s-.2-.019-.65-.366l-5.927-5.248v3.84c0,.87.292,1.371,1.127,1.371.183,0,.231.056.231.154s-.061.117-.231.117c-.6,0-.942-.021-1.544-.021-.464,0-1.191.021-1.639.021-.138,0-.215-.04-.215-.135s.077-.117.247-.117c.743,0,1.111-.464,1.111-1.39V19.817a1,1,0,0,0-1.111-1.1c-.17,0-.265-.058-.265-.156s.093-.133.247-.133h1.745c.65,0,.8.1,1.39.6l4.678,4.225V20.088c0-.907-.294-1.368-1.127-1.368-.141,0-.265-.04-.265-.135s.093-.154.247-.154c.57,0,1.111.037,1.575.037s1.156-.037,1.591-.037c.156,0,.249.037.249.133s-.093.156-.265.156c-.772,0-1.1.4-1.1,1.35Z" transform="translate(-312.854 -13.539)"/>
    <path id="Path_42" data-name="Path 42" d="M472.723,25.831c-.464,0-1.021-.021-1.729-.021-.851,0-1.345.021-1.793.021-.154,0-.231-.058-.231-.135s.077-.135.218-.135a1.017,1.017,0,0,0,.865-.424,1.638,1.638,0,0,0,.09-.658V19.405a1.518,1.518,0,0,0-.09-.636.987.987,0,0,0-.865-.446c-.141,0-.218-.056-.218-.135s.077-.133.231-.133c.432,0,.941.019,1.806.019.419,0,1.034-.019,1.514-.019h3.1a1.963,1.963,0,0,0,.8-.135c.125,0,.138.056.109.347l-.17,1.716c-.032.252-.186.265-.233,0-.138-1.178-.57-1.2-1.573-1.2h-1.915c-.573,0-.759.194-.759.849V21.2c0,.156.048.212.17.212h1.856a.931.931,0,0,0,.957-.944c0-.175.061-.265.125-.265s.09.077.09.265v2.586c0,.212-.029.265-.09.265s-.109-.058-.125-.265a.9.9,0,0,0-.957-.907h-1.856c-.138,0-.17.058-.17.194v1.35c0,1.138.249,1.39,1.3,1.39h.957a2.26,2.26,0,0,0,2.472-1.591c.093-.212.265-.154.231.077l-.316,1.273c-.233.947-.31,1.005-1.021,1.005Z" transform="translate(-344.597 -13.164)"/>
    <path id="Path_43" data-name="Path 43" d="M56.118,82.484a3.4,3.4,0,0,0-.194-1.477,2.331,2.331,0,0,0-1.984-1.026c-.31,0-.621-.09-.621-.265s.233-.225.5-.225c1.167,0,2.371.09,3.731.09,1.326,0,2.488-.09,3.655-.09.31,0,.544,0,.544.225,0,.178-.31.223-.621.223A2.392,2.392,0,0,0,59.149,81a3.228,3.228,0,0,0-.233,1.477v4.508a.2.2,0,0,0,.194.223h13.1c.117,0,.156-.045.156-.133V82.484a3.228,3.228,0,0,0-.233-1.477,2.33,2.33,0,0,0-1.981-1.026c-.31,0-.623-.09-.623-.265,0-.225.233-.225.53-.225,1.127,0,2.334.09,3.694.09s2.525-.09,3.652-.09c.35,0,.546,0,.546.225,0,.178-.265.223-.583.223A2.456,2.456,0,0,0,75.345,81a3.351,3.351,0,0,0-.2,1.477V93.92a5.254,5.254,0,0,0,.2,1.875,2.485,2.485,0,0,0,2.021,1.074c.31,0,.583,0,.583.223,0,.18-.2.223-.546.223-1.127,0-2.291-.042-3.615-.042-1.4,0-2.525.042-3.731.042-.31,0-.53-.042-.53-.223,0-.223.313-.223.623-.223a2.372,2.372,0,0,0,1.981-1.074,4.348,4.348,0,0,0,.233-1.875V88.83c0-.178-.04-.265-.156-.265H59.149c-.156,0-.233.09-.233.265v5.1a4.225,4.225,0,0,0,.233,1.875,2.185,2.185,0,0,0,1.984,1.074c.31,0,.621,0,.621.223,0,.18-.233.223-.544.223-1.127,0-2.334-.042-3.692-.042s-2.527.042-3.694.042c-.265,0-.5-.042-.5-.223,0-.223.265-.223.621-.223A2.168,2.168,0,0,0,55.885,95.8a4.225,4.225,0,0,0,.233-1.875Z" transform="translate(-39.179 -58.405)"/>
    <path id="Path_44" data-name="Path 44" d="M171.55,78.3c6.956,0,11.348,3.845,11.348,9.03,0,4.872-3.885,9.433-11.544,9.433-6.8,0-11.353-3.668-11.353-9C160,82.907,163.853,78.3,171.55,78.3Zm-8.086,8.853c0,4.508,2.488,8.672,8.123,8.672,4.548,0,7.813-2.684,7.813-7.869,0-4.469-2.448-8.717-8.083-8.717C166.768,79.239,163.464,82.01,163.464,87.153Z" transform="translate(-117.567 -57.531)"/>
    <path id="Path_45" data-name="Path 45" d="M266.468,80.007H261.61c-1.591,0-2.334,1.029-2.8,2.994-.08.223-.2.265-.265.265s-.156-.223-.156-.4l.43-4.243c.037-.223.077-.313.233-.313a2.317,2.317,0,0,0,1.2.313h15.2a2.287,2.287,0,0,0,1.207-.313c.146,0,.194.09.233.358l.387,4.243c.04.178-.037.355-.154.355s-.2-.045-.265-.265c-.427-1.965-1.167-2.994-2.8-2.994h-4.837V93.061a4.226,4.226,0,0,0,.233,1.875A2.357,2.357,0,0,0,271.4,96.01c.31,0,.623.045.623.223s-.233.223-.546.223c-1.127,0-2.291-.042-3.652-.042s-2.451.042-3.615.042c-.313,0-.507-.042-.507-.223s.265-.223.583-.223a2.258,2.258,0,0,0,1.944-1.074,4.929,4.929,0,0,0,.233-1.875Z" transform="translate(-189.864 -57.538)"/>
    <path id="Path_46" data-name="Path 46" d="M350.736,96.448c-2.1,0-3.031-.042-4.159-.042-1.326,0-2.488.042-3.654.042-.427,0-.583-.042-.583-.223s.156-.223.583-.223a2.329,2.329,0,0,0,2.021-1.074,3.207,3.207,0,0,0,.233-1.475V82.01a4.429,4.429,0,0,0-.233-1.92,2.391,2.391,0,0,0-2.021-1.029c-.427,0-.583-.045-.583-.223s.156-.225.583-.225c1.127,0,2.254.09,3.578.09,1.087,0,2.291-.09,3.381-.09h7.89A4.645,4.645,0,0,0,359.6,78.3c.236,0,.31.09.233.448l-.39,4.113c-.077.4-.387.4-.427,0-.233-3-1.591-3.084-4.243-3.084h-4.737c-1.671,0-2.1.355-2.1,2.413v4.023c0,.223.077.265.233.265h5.246a2.424,2.424,0,0,0,2.684-1.968c.037-.358.117-.626.265-.626.2,0,.2.265.2.626,0,.716-.08,1.833-.08,2.594,0,.716.08,1.833.08,2.549,0,.355,0,.626-.2.626-.154,0-.194-.225-.265-.626a2.459,2.459,0,0,0-2.684-1.968h-5.246c-.2,0-.233.09-.233.265v4.068c0,2.681.35,3.217,3.265,3.217h2.917c3.265,0,4.859-.758,6.1-3.8.156-.358.467-.223.39.088l-.74,2.816c-.5,1.923-.7,2.1-2.488,2.1Z" transform="translate(-251.55 -57.531)"/>
    <path id="Path_47" data-name="Path 47" d="M430.1,92.771c0,2.684.077,3.4,3.3,3.4h2.721c2.875,0,4.774-.671,6.219-4.508.077-.358.467-.265.427.09l-.936,3.8c-.35,1.387-.583,1.787-1.787,1.787h-7.426c-1.361,0-2.567-.042-3.928-.042-1.244,0-2.758.042-4.042.042-.194,0-.35-.133-.35-.223,0-.133.156-.265.39-.265,1.981,0,2.652-1.52,2.652-3.487v-9.7a5.692,5.692,0,0,0-.35-2.5,2.854,2.854,0,0,0-2.294-1.162c-.39,0-.7-.045-.7-.223,0-.225.233-.265.623-.265,1.326,0,2.721.09,4.042.09s2.652-.09,4.159-.09c.39,0,.583.045.583.265,0,.178-.31.223-.66.223a2.873,2.873,0,0,0-2.334,1.162,6.457,6.457,0,0,0-.31,2.5Z" transform="translate(-311.553 -58.413)"/>
    <path id="Path_48" data-name="Path 48" d="M0,155.233c2.742-1.75,5.535-3.426,8.433-4.914a93.676,93.676,0,0,1,8.919-3.978c1.52-.586,3.039-1.164,4.588-1.684s3.119-.979,4.707-1.353a63.076,63.076,0,0,1,9.667-1.538c3.254-.284,6.521-.337,9.781-.3s6.513.188,9.762.379c6.5.392,12.982.941,19.463,1.443s12.966.976,19.453,1.384c3.241.215,6.487.4,9.725.589s6.479.318,9.712.332a64.18,64.18,0,0,0,9.64-.568,27.312,27.312,0,0,0,9.094-2.846,19.208,19.208,0,0,0,6.94-6.452,24.388,24.388,0,0,0,3.448-8.977l.125.021a24.11,24.11,0,0,1-3.1,9.258,19.816,19.816,0,0,1-6.991,6.9,27.01,27.01,0,0,1-9.356,3.156,64.744,64.744,0,0,1-9.813.751c-6.543.032-13.037-.451-19.527-.907s-12.971-1.037-19.45-1.615-12.953-1.178-19.432-1.634c-3.238-.223-6.482-.4-9.722-.475s-6.487-.045-9.714.2l-1.212.1c-.4.034-.8.082-1.207.122-.8.074-1.607.194-2.408.3-1.591.239-3.2.514-4.774.888s-3.137.8-4.684,1.278-3.05,1.061-4.564,1.615a94.324,94.324,0,0,0-8.943,3.84c-2.917,1.44-5.72,3.074-8.487,4.774Z" transform="translate(0 -93.132)" fill="#c7990b"/>
    <path id="Path_49" data-name="Path 49" d="M14.72,170.87c2.74-1.75,5.535-3.426,8.434-4.912a94.373,94.373,0,0,1,8.919-3.978c1.52-.586,3.039-1.162,4.588-1.684s3.116-.976,4.707-1.35a62.655,62.655,0,0,1,9.667-1.543c3.254-.284,6.519-.334,9.778-.3s6.516.188,9.765.382c6.5.39,12.995.939,19.463,1.44s12.966.979,19.45,1.384c3.241.217,6.49.4,9.728.591s6.479.318,9.712.329a63.791,63.791,0,0,0,9.638-.568,27.289,27.289,0,0,0,9.1-2.843,19.185,19.185,0,0,0,6.938-6.455,24.329,24.329,0,0,0,3.448-8.974l.125.019a24.11,24.11,0,0,1-3.087,9.258,19.809,19.809,0,0,1-6.993,6.9,27.053,27.053,0,0,1-9.354,3.156,65.468,65.468,0,0,1-9.813.751c-6.545.032-13.04-.453-19.527-.907s-12.974-1.04-19.45-1.618S77,158.766,70.519,158.31c-3.241-.223-6.482-.4-9.725-.475a96.476,96.476,0,0,0-9.714.207l-1.209.1c-.4.034-.8.085-1.207.125-.8.074-1.607.191-2.408.3-1.591.241-3.2.53-4.774.888s-3.14.8-4.684,1.278-3.068,1.061-4.591,1.615a93.348,93.348,0,0,0-8.927,3.853c-2.917,1.44-5.723,3.074-8.487,4.774Z" transform="translate(-10.816 -104.624)" fill="#262262"/>
  </g>
</svg>
